<svg width="200" height="200" viewBox="0 0 200 200" fill="none" xmlns="http://www.w3.org/2000/svg">
<path d="M80.5369 195.973L79.1946 197.315H81.8792L83.2215 198.658V197.315H81.8792L80.5369 195.973Z" fill="black"/>
<path d="M112.752 194.631L111.409 195.973H106.04L104.698 197.315H103.356L102.013 198.658H99.3289V200L100.671 198.658H115.436L116.779 197.315H122.148L120.805 195.973H118.121L116.779 194.631H112.752Z" fill="#55A055"/>
<path d="M120.805 181.208L119.463 182.55H108.725L107.383 183.893H100.671L99.3289 185.235H96.6443L95.302 186.577H93.9597L92.6175 187.919H91.2752L88.5906 190.604V193.289H92.6175L95.302 190.604H96.6443L99.3289 187.919H102.013L103.356 186.577H112.752L114.094 185.235H123.49L124.832 186.577H126.174L128.859 189.262V190.604L131.544 193.289H134.228V191.946L135.57 190.604V189.262L130.201 183.893H128.859L127.517 182.55H126.174L124.832 181.208H120.805Z" fill="#55A055"/>
<path d="M40.2685 179.866L42.953 182.55H44.2953V181.208L42.953 179.866H40.2685Z" fill="#CE8F4C"/>
<path d="M85.906 175.839L80.5369 181.208H79.1946L76.5101 183.893H75.1678L72.4832 186.577H71.1409L68.4564 189.262H67.1141L64.4295 191.946V193.289H65.7718L67.1141 194.631H68.4564L72.4832 190.604H73.8255L75.1678 189.262H76.5101L79.1946 186.577H80.5369L83.2215 183.893H84.5638L87.2483 181.208H88.5906L89.9329 179.866V177.181L88.5906 175.839H85.906Z" fill="#CE8F4C"/>
<path d="M136.913 169.128L134.228 171.812V174.497L138.255 178.523H139.597L142.282 181.208V182.55L143.624 183.893V185.235L144.966 186.577V187.919H146.309L147.651 186.577H148.993V183.893L146.309 181.208V179.866L142.282 175.839V174.497L140.94 173.154V171.812L139.597 170.47H138.255L136.913 169.128Z" fill="#55A055"/>
<path d="M18.7919 159.732L21.4765 162.416V161.074L20.1342 159.732H18.7919Z" fill="#AE688B"/>
<path d="M73.8255 151.678L72.4832 153.02H71.1409L69.7987 154.362H68.4564L65.7718 157.047H64.4295L60.4027 161.074H59.0604L56.3758 163.758H55.0336L53.6913 165.101H52.349L51.0067 166.443H49.6644L48.3221 167.785H45.6376L44.2953 169.128H29.5302L28.1879 170.47L29.5302 171.812H30.8725L32.2148 173.154H44.2953L45.6376 171.812H51.0067L52.349 170.47H53.6913L55.0336 169.128H56.3758L59.0604 166.443H60.4027L63.0872 163.758H64.4295L67.1141 161.074H68.4564L72.4832 157.047H73.8255L75.1678 155.705H77.8523L81.8792 159.732V162.416L76.5101 167.785H75.1678L73.8255 169.128H72.4832L71.1409 170.47H69.7987L68.4564 171.812H67.1141L64.4295 174.497H63.0872L60.4027 177.181H59.0604L57.7181 178.523H56.3758L53.6913 181.208V182.55L51.0067 185.235V186.577L52.349 187.919H53.6913L55.0336 189.262L56.3758 187.919V186.577L63.0872 179.866H64.4295L67.1141 177.181H68.4564L69.7987 175.839H71.1409L72.4832 174.497H73.8255L75.1678 173.154H76.5101L77.8523 171.812H79.1946L81.8792 169.128H83.2215L85.906 166.443V163.758L87.2483 162.416V161.074L85.906 159.732V157.047L81.8792 153.02H80.5369L79.1946 151.678H73.8255Z" fill="#CE8F4C"/>
<path d="M120.805 146.309L118.121 148.993L119.463 150.336V151.678L124.832 157.047V158.389L126.175 159.732V162.416L124.832 163.758V165.101L123.49 166.443H122.148L120.805 167.785H119.463L118.121 169.128H111.409L110.067 170.47H104.698L103.356 171.812L102.013 170.47H100.671L97.9866 167.785V163.758L100.671 161.074H103.356L104.698 159.732L106.04 161.074H114.094L115.436 159.732V158.389L114.094 157.047H112.752L111.409 155.705H106.04L104.698 157.047H100.671L99.3289 158.389H97.9866L96.6443 159.732H95.302V161.074L93.9597 162.416V170.47L95.302 171.812V173.154H96.6443L97.9866 174.497H99.3289L100.671 175.839H103.356L104.698 174.497H111.409L112.752 173.154H123.49L124.832 171.812H126.175V170.47L128.859 167.785V166.443L130.201 165.101V163.758L131.544 162.416V159.732L130.201 158.389V155.705L127.517 153.02V151.678L126.175 150.336V148.993L123.49 146.309H120.805Z" fill="#55A055"/>
<path d="M37.5839 143.624V144.966L36.2416 146.309V147.651L37.5839 148.993H38.9262L40.2685 150.336L41.6107 148.993H44.2953V144.966L42.953 143.624H37.5839Z" fill="#AE688B"/>
<path d="M187.919 142.282V144.966L189.262 143.624V142.282H187.919Z" fill="#55A055"/>
<path d="M65.7718 140.94L64.4295 142.282H63.0872L60.4027 144.966H59.0604L56.3758 147.651H55.0336L51.0067 151.678H49.6644L46.9799 154.362H45.6376L44.2953 155.705H41.6107L40.2685 157.047H38.9262L37.5839 155.705H29.5302L28.1879 157.047H26.8456V159.732L28.1879 161.074H33.557L34.8993 159.732H44.2953L45.6376 158.389H48.3221L49.6644 157.047H51.0067L53.6913 154.362H55.0336L56.3758 153.02H57.7181L60.4027 150.336H61.745L63.0872 148.993H64.4295L65.7718 147.651H67.1141L68.4564 146.309H69.7987V140.94H65.7718Z" fill="#AE688B"/>
<path d="M76.5101 138.255V139.597L75.1678 140.94L76.5101 142.282V143.624H85.906L89.9329 147.651V148.993L91.2752 150.336V151.678L92.6175 153.02H95.302L97.9866 150.336V147.651L96.6443 146.309V144.966H95.302L93.9597 143.624H92.6175L91.2752 142.282V140.94H89.9329L88.5906 139.597H85.906L84.5638 138.255H76.5101Z" fill="#AE688B"/>
<path d="M17.4497 130.201L16.1074 131.544H14.7651L13.4228 132.886H10.7383L9.39597 134.228H6.71141V138.255L8.05369 139.597L9.39597 138.255H13.4228L14.7651 136.913H17.4497L18.7919 135.57H20.1342L21.4765 134.228H26.8456L28.1879 135.57V139.597L26.8456 140.94V142.282L25.5034 143.624H24.1611L22.8188 144.966H21.4765L20.1342 146.309H13.4228L12.0805 147.651V148.993L13.4228 150.336V151.678H22.8188L24.1611 150.336H26.8456L30.8725 146.309V143.624L32.2148 142.282V139.597L36.2416 135.57H37.5839L38.9262 134.228H40.2685L41.6107 135.57H44.2953L49.6644 140.94H51.0067L52.349 142.282H55.0336L57.7181 139.597V138.255L56.3758 136.913V135.57H53.6913L52.349 134.228H51.0067L49.6644 132.886H48.3221L46.9799 131.544H44.2953L42.953 130.201H37.5839L36.2416 131.544H28.1879L26.8456 130.201H17.4497Z" fill="#AE688B"/>
<path d="M49.6644 118.121L48.3221 119.463V123.49L49.6644 124.832H51.0067L52.349 126.174H55.0336L57.7181 128.859H59.0604L63.0872 132.886H65.7718L67.1141 134.228H69.7987L71.1409 132.886H73.8255L75.1678 131.544H76.5101L77.8523 130.201H89.9329L91.2752 131.544H93.9597L95.302 132.886H97.9866L103.356 138.255V140.94L104.698 142.282V146.309L106.04 147.651V148.993H112.752V147.651L114.094 146.309V144.966L112.752 143.624V142.282L107.383 136.913V134.228L106.04 132.886V131.544L103.356 128.859H100.671L99.3289 127.517H95.302L93.9597 126.174H89.9329L88.5906 124.832H85.906L84.5638 123.49H81.8792L80.5369 124.832H79.1946L77.8523 126.174H75.1678L73.8255 127.517H71.1409L69.7987 128.859H68.4564L67.1141 127.517H64.4295L63.0872 126.174H61.745L56.3758 120.805H55.0336L53.6913 119.463H52.349L51.0067 118.121H49.6644Z" fill="#AE688B"/>
<path d="M198.658 112.752V114.094L197.315 115.436V119.463L195.973 120.805V122.148L194.631 123.49V124.832L190.604 128.859H189.262L187.919 130.201H183.893L182.55 131.544H181.208L179.866 130.201H174.497L173.154 131.544H170.47L167.785 134.228V135.57L166.443 136.913V140.94L167.785 142.282V143.624L170.47 146.309H171.812L174.497 148.993H175.839L181.208 154.362V155.705H182.55V154.362L183.893 153.02V151.678L177.181 144.966H175.839L174.497 143.624H173.154L171.812 142.282V140.94L170.47 139.597V138.255L174.497 134.228H181.208L182.55 135.57L183.893 134.228H189.262L190.604 132.886H191.946L194.631 130.201V128.859L195.973 127.517V123.49L197.315 122.148V116.779L198.658 115.436V112.752Z" fill="#55A055"/>
<path d="M0 103.356V112.752H1.34228L2.68456 114.094H6.71141L8.05369 112.752V111.409L5.36913 108.725H4.02685L0 104.698V103.356Z" fill="#5C7A99"/>
<path d="M170.47 88.5906L169.128 89.9329H167.785L165.101 92.6175H163.758L161.074 95.302V96.6443L158.389 99.3289V100.671L157.047 102.013V110.067L158.389 111.409V112.752L166.443 120.805H167.785L169.128 122.148H178.523L179.866 120.805H182.55L185.235 118.121H186.577V116.779L187.919 115.436V114.094L189.262 112.752V111.409L190.604 110.067V106.04L194.631 102.013H198.658V100.671L200 99.3289L198.658 97.9866V96.6443H194.631L193.289 97.9866H191.946L187.919 102.013V104.698L186.577 106.04V108.725L185.235 110.067V112.752L181.208 116.779H179.866L178.523 118.121H171.812L170.47 116.779H169.128L162.416 110.067V108.725L161.074 107.383V103.356L162.416 102.013V100.671L163.758 99.3289V97.9866L167.785 93.9597H170.47L171.812 92.6175L173.154 93.9597H174.497L177.181 96.6443V97.9866L175.839 99.3289V100.671L170.47 106.04V107.383L171.812 108.725H175.839L177.181 107.383V106.04L178.523 104.698V102.013L179.866 100.671V99.3289L181.208 97.9866V93.9597L179.866 92.6175V91.2752H178.523L175.839 88.5906H170.47Z" fill="#55A055"/>
<path d="M106.04 85.906L104.698 87.2483V92.6175L106.04 93.9597H107.383L108.725 95.302H111.409L114.094 97.9866V99.3289L115.436 100.671V104.698L114.094 106.04V107.383L108.725 112.752H107.383L106.04 114.094H95.302L93.9597 112.752H91.2752L89.9329 111.409H88.5906L87.2483 110.067V106.04L89.9329 103.356H96.6443L97.9866 104.698H99.3289L100.671 106.04H102.013L103.356 107.383L106.04 104.698V102.013L103.356 99.3289H102.013L100.671 97.9866H97.9866L96.6443 96.6443H93.9597L92.6175 97.9866H91.2752L89.9329 99.3289H88.5906L85.906 102.013H84.5638L83.2215 103.356H80.5369L79.1946 102.013H76.5101L75.1678 100.671H73.8255L72.4832 99.3289H71.1409L69.7987 97.9866H68.4564L65.7718 95.302H64.4295L63.0872 93.9597H59.0604L57.7181 95.302V96.6443L61.745 100.671H64.4295L65.7718 102.013H68.4564L69.7987 103.356H71.1409L72.4832 104.698H73.8255L75.1678 106.04H79.1946L80.5369 107.383H81.8792L83.2215 108.725V110.067L84.5638 111.409V112.752L88.5906 116.779H89.9329L91.2752 118.121H95.302L96.6443 119.463H100.671L102.013 120.805H108.725L110.067 119.463V118.121L112.752 115.436H114.094L116.779 112.752H118.121L119.463 111.409V106.04L120.805 104.698L119.463 103.356V102.013L120.805 100.671V97.9866L119.463 96.6443V93.9597L114.094 88.5906H112.752L111.409 87.2483H110.067L108.725 85.906H106.04Z" fill="#B23051"/>
<path d="M16.1074 83.2215V87.2483L17.4497 88.5906V89.9329L24.1611 96.6443V97.9866L32.2148 106.04H33.557L34.8993 107.383H37.5839L38.9262 108.725H42.953L44.2953 110.067H51.0067L52.349 111.409H56.3758L57.7181 112.752H59.0604L60.4027 114.094H61.745L64.4295 116.779H65.7718L67.1141 118.121H68.4564L69.7987 119.463H77.8523L79.1946 118.121V116.779L77.8523 115.436V114.094H76.5101L75.1678 112.752H69.7987L68.4564 111.409H65.7718L64.4295 110.067H63.0872L61.745 108.725H60.4027L59.0604 107.383H57.7181L56.3758 106.04H55.0336L53.6913 104.698H41.6107L40.2685 103.356H37.5839L36.2416 102.013H34.8993L29.5302 96.6443V95.302L25.5034 91.2752V89.9329L24.1611 88.5906V87.2483L21.4765 84.5638H20.1342L18.7919 83.2215H16.1074Z" fill="#5C7A99"/>
<path d="M165.101 76.5101L163.758 77.8524H161.074L150.336 88.5906V89.9329L144.966 95.302V96.6443L143.624 97.9866V99.3289L142.282 100.671V108.725L143.624 110.067V112.752L144.966 114.094V116.779L146.309 118.121V119.463L151.678 124.832V126.174L157.047 131.544H162.416V126.174H161.074L159.732 124.832H158.389L151.678 118.121V116.779L148.993 114.094V111.409L147.651 110.067V106.04L146.309 104.698V103.356L147.651 102.013V99.3289L150.336 96.6443V95.302L155.705 89.9329V88.5906L158.389 85.906H159.732L161.074 84.5638H162.416L163.758 83.2215H166.443L167.785 81.8792H169.128V77.8524L167.785 76.5101H165.101Z" fill="#55A055"/>
<path d="M2.68456 71.1409V75.1678L1.34228 76.5101L2.68456 77.8523V83.2215L4.02685 84.5638V92.6174L5.36913 93.9597V95.302L6.71141 96.6443V97.9866L9.39597 100.671V102.013L17.4497 110.067V114.094L13.4228 118.121H12.0805L10.7383 119.463H9.39597L8.05369 120.805H5.36913L4.02685 122.148H1.34228L2.68456 123.49V126.174H9.39597L10.7383 124.832H13.4228L14.7651 123.49H16.1074L18.7919 120.805H20.1342L21.4765 119.463H26.8456L28.1879 120.805H29.5302L30.8725 122.148H33.557L34.8993 123.49H42.953V122.148L44.2953 120.805V118.121L42.953 116.779H40.2685L38.9262 115.436H26.8456L25.5034 114.094H24.1611L22.8188 112.752V110.067L21.4765 108.725V107.383L18.7919 104.698V103.356L12.0805 96.6443V95.302L10.7383 93.9597V91.2752L9.39597 89.9329V80.5369L8.05369 79.1946V76.5101L5.36913 73.8255V72.4832H4.02685L2.68456 71.1409Z" fill="#5C7A99"/>
<path d="M13.4228 68.4564L12.0805 69.7987V71.1409L16.1074 75.1678H17.4497L18.7919 76.5101H24.1611L25.5034 77.8523H26.8456L29.5302 80.5369V81.8792L33.557 85.906V87.2483L40.2685 93.9597H41.6107L44.2953 96.6443H45.6376L46.9799 97.9866H51.0067L52.349 96.6443V93.9597L49.6644 91.2752H48.3221L46.9799 89.9329H44.2953L42.953 88.5906H41.6107L33.557 80.5369V79.1946L26.8456 72.4832H25.5034L24.1611 71.1409H22.8188L21.4765 69.7987H18.7919L17.4497 68.4564H13.4228Z" fill="#5C7A99"/>
<path d="M135.57 67.1141L132.886 69.7987V71.1409L126.174 77.8524H118.121L115.436 75.1678H114.094L112.752 73.8255H111.409L110.067 72.4832H102.013L100.671 73.8255H99.3289L95.302 77.8524V79.1946L93.9597 80.5369V81.8792L92.6175 83.2215V88.5906L95.302 91.2752H96.6443L97.9866 89.9329V87.2483L99.3289 85.906V83.2215L103.356 79.1946H104.698L106.04 77.8524H107.383L108.725 79.1946H111.409L112.752 80.5369H114.094L115.436 81.8792H116.779L120.805 85.906H126.174L128.859 83.2215V81.8792L131.544 79.1946H134.228V77.8524L139.597 72.4832V67.1141H135.57Z" fill="#7A7ACC"/>
<path d="M150.336 64.4295L148.993 65.7718V67.1141L147.651 68.4564V73.8255L143.624 77.8523V79.1946L140.94 81.8792H139.597L136.913 84.5638V85.906L134.228 88.5906H132.886L130.201 91.2752V92.6174L128.859 93.9597V112.752L130.201 114.094V116.779L131.544 118.121V124.832L132.886 126.174V127.517H134.228L139.597 132.886H140.94L151.678 143.624V144.966L153.02 146.309V147.651L154.362 148.993V151.678L159.732 157.047H162.416L163.758 158.389H166.443L167.785 159.732V161.074L169.128 162.416V165.101L165.101 169.128H157.047L147.651 159.732V158.389L144.966 155.705V154.362L143.624 153.02V150.336L142.282 148.993V147.651L139.597 144.966V143.624L134.228 138.255H132.886L130.201 135.57H128.859L127.517 134.228H124.832L123.49 132.886H122.148L119.463 130.201V127.517L123.49 123.49V122.148L124.832 120.805L123.49 119.463V118.121H120.805L119.463 119.463H118.121V120.805L115.436 123.49V124.832L114.094 126.174V130.201L115.436 131.544V132.886L120.805 138.255H123.49L124.832 139.597H127.517L130.201 142.282H131.544L135.57 146.309V147.651L138.255 150.336V153.02L139.597 154.362V157.047L140.94 158.389V159.732L142.282 161.074V162.416H143.624L148.993 167.785V169.128L154.362 174.497H158.389L159.732 173.154H162.416L163.758 171.812H166.443L167.785 170.47H170.47L171.812 169.128V167.785L174.497 165.101V162.416L173.154 161.074V159.732L169.128 155.705H167.785L165.101 153.02H163.758L158.389 147.651V144.966L157.047 143.624V140.94L153.02 136.913H151.678L142.282 127.517H140.94L138.255 124.832V123.49L136.913 122.148V120.805L135.57 119.463V115.436L134.228 114.094V110.067L132.886 108.725V97.9866L134.228 96.6443V95.302L135.57 93.9597V92.6174L148.993 79.1946V77.8523L153.02 73.8255V72.4832L154.362 71.1409V64.4295H150.336Z" fill="#55A055"/>
<path d="M191.946 60.4027L190.604 61.745V71.1409L191.946 72.4832H193.289L194.631 73.8255H195.973V71.1409L194.631 69.7987V67.1141L193.289 65.7718V64.4295L191.946 63.0872V60.4027Z" fill="#7A7ACC"/>
<path d="M179.866 60.4027L178.523 61.745H177.181V63.0872L175.839 64.4295V76.5101L177.181 77.8523V80.5369L181.208 84.5638H182.55L186.577 88.5906H193.289L194.631 87.2483H198.658V83.2215L197.315 81.8792L195.973 83.2215H191.946L190.604 81.8792H187.919L181.208 75.1678V67.1141L182.55 65.7718V61.745L181.208 60.4027H179.866Z" fill="#7A7ACC"/>
<path d="M96.6443 60.4027L95.302 61.745V67.1141L96.6443 68.4564H100.671L102.013 67.1141V63.0872L99.3289 60.4027H96.6443Z" fill="#7A7ACC"/>
<path d="M65.7718 56.3758V61.745L67.1141 63.0872V64.4295L68.4564 65.7718V73.8255L67.1141 75.1678V76.5101L63.0872 80.5369H61.745L60.4027 81.8792H57.7181L56.3758 80.5369H53.6913L41.6107 68.4564V67.1141H38.9262L37.5839 65.7718H36.2416L34.8993 67.1141V69.7987L38.9262 73.8255H40.2685L44.2953 77.8523V79.1946H45.6376L51.0067 84.5638H52.349L53.6913 85.906H55.0336L56.3758 87.2483H61.745L63.0872 85.906H67.1141L68.4564 87.2483H69.7987L73.8255 91.2752H75.1678L77.8523 93.9597H79.1946L80.5369 95.302H85.906L87.2483 93.9597V89.9329L85.906 88.5906H84.5638L83.2215 87.2483H77.8523L76.5101 85.906H73.8255L71.1409 83.2215V77.8523L72.4832 76.5101V75.1678L73.8255 73.8255V63.0872L72.4832 61.745V59.0604L69.7987 56.3758H65.7718Z" fill="#5C7A99"/>
<path d="M138.255 53.6913L136.913 55.0336H135.57V56.3758L134.228 57.7181V59.0604L136.913 61.745H138.255L139.597 63.0872H142.282L143.624 61.745V56.3758L142.282 55.0336H140.94L139.597 53.6913H138.255Z" fill="#7A7ACC"/>
<path d="M38.9262 53.6913L37.5839 55.0336H29.5302L28.1879 56.3758H9.39597L8.05369 57.7181V59.0604L6.71141 60.4027V61.745H8.05369L9.39597 63.0872H12.0805L13.4228 61.745H24.1611L25.5034 63.0872H29.5302L30.8725 61.745H33.557L34.8993 60.4027H46.9799L48.3221 61.745H49.6644L52.349 64.4295V65.7718L53.6913 67.1141V68.4564L55.0336 69.7987V71.1409L57.7181 73.8255H60.4027V72.4832L61.745 71.1409L60.4027 69.7987V67.1141L59.0604 65.7718V64.4295L56.3758 61.745V60.4027L55.0336 59.0604H53.6913L51.0067 56.3758H48.3221L46.9799 55.0336H40.2685L38.9262 53.6913Z" fill="#5C7A99"/>
<path d="M166.443 48.3221L163.758 51.0067V55.0336L162.416 56.3758V57.7181L163.758 59.0604L162.416 60.4027V64.4295L161.074 65.7718V69.7987L162.416 71.1409H166.443L167.785 69.7987V57.7181L169.128 56.3758V55.0336L170.47 53.6913V49.6644L169.128 48.3221H166.443Z" fill="#7A7ACC"/>
<path d="M182.55 45.6376L178.523 49.6644V51.0067L177.181 52.349V53.6913L179.866 56.3758H181.208L186.577 51.0067V49.6644L185.235 48.3221V46.9799L183.893 45.6376H182.55Z" fill="#7A7ACC"/>
<path d="M33.557 40.2685L32.2148 41.6107H28.1879L26.8456 42.953H16.1074V44.2953L13.4228 46.9799V48.3221H30.8725L32.2148 46.9799H41.6107L42.953 48.3221H51.0067L52.349 49.6644H55.0336L59.0604 53.6913H63.0872L64.4295 52.349V49.6644L63.0872 48.3221V46.9799L61.745 45.6376H60.4027L59.0604 44.2953H56.3758L55.0336 42.953H53.6913L52.349 44.2953H46.9799L45.6376 42.953H41.6107L40.2685 41.6107H37.5839L36.2416 40.2685H33.557Z" fill="#5C7A99"/>
<path d="M93.9597 36.2416L92.6175 37.5839V44.2953L91.2752 45.6376V52.349L92.6175 53.6913V55.0336L93.9597 56.3758H97.9866V51.0067L96.6443 49.6644V46.9799L97.9866 45.6376V37.5839L96.6443 36.2416H93.9597Z" fill="#7A7ACC"/>
<path d="M135.57 30.8725V32.2148L134.228 33.557V40.2685L135.57 41.6107L134.228 42.953V46.9799L135.57 48.3221V49.6644H140.94V41.6107L139.597 40.2685V37.5839L140.94 36.2416V33.557L139.597 32.2148V30.8725H135.57Z" fill="#7A7ACC"/>
<path d="M169.128 29.5302L167.785 30.8725H166.443L163.758 33.557V34.8993L162.416 36.2416V38.9262L163.758 40.2685V41.6107L166.443 44.2953H173.154L174.497 42.953H175.839L177.181 41.6107V40.2685L178.523 38.9262V37.5839L171.812 30.8725V29.5302H169.128Z" fill="#7A7ACC"/>
<path d="M159.732 20.1342L158.389 21.4765H154.362L150.336 25.5034V26.8456L148.993 28.1879V36.2416L150.336 37.5839V48.3221L148.993 49.6644V56.3758L151.678 59.0604H153.02L154.362 57.7181V55.0336L155.705 53.6913V41.6107L154.362 40.2685V34.8993L153.02 33.557V30.8725L157.047 26.8456H159.732L161.074 25.5034H166.443L161.074 20.1342H159.732Z" fill="#7A7ACC"/>
<path d="M37.5839 20.1342L30.8725 26.8456H29.5302L26.8456 29.5302V30.8725L22.8188 34.8993H32.2148L34.8993 32.2148V30.8725L36.2416 29.5302V26.8456L37.5839 25.5034V20.1342Z" fill="#70BBBB"/>
<path d="M59.0604 17.4497L57.7181 18.7919V30.8725L59.0604 32.2148V33.557L61.745 36.2416H63.0872L68.4564 41.6107V42.953L71.1409 45.6376V46.9799L80.5369 56.3758V57.7181L81.8792 59.0604V61.745L83.2215 63.0872V71.1409L80.5369 73.8255V79.1946L83.2215 81.8792H85.906L88.5906 79.1946V77.8523L89.9329 76.5101V69.7987L88.5906 68.4564V64.4295L87.2483 63.0872V60.4027L85.906 59.0604V56.3758L84.5638 55.0336V53.6913L83.2215 52.349V51.0067L79.1946 46.9799H77.8523L72.4832 41.6107V40.2685L69.7987 37.5839V36.2416L68.4564 34.8993V26.8456L67.1141 25.5034V22.8188L63.0872 18.7919V17.4497H59.0604Z" fill="#70BBBB"/>
<path d="M104.698 14.7651L103.356 16.1074V20.1342L104.698 21.4765V22.8188L106.04 24.1611V59.0604L107.383 60.4027V61.745L112.752 67.1141H114.094L115.436 68.4564H118.121L119.463 69.7987H124.832L127.517 67.1141H128.859V64.4295L130.201 63.0872L128.859 61.745V60.4027H124.832L123.49 61.745H116.779L115.436 60.4027H114.094L111.409 57.7181V56.3758L110.067 55.0336V36.2416L111.409 34.8993V30.8725L110.067 29.5302V18.7919L108.725 17.4497V16.1074L107.383 14.7651H104.698Z" fill="#7A7ACC"/>
<path d="M49.6644 12.0805L48.3222 13.4228H46.9799L45.6376 14.7651V21.4765L44.2953 22.8188V25.5034L42.953 26.8456V33.557L44.2953 34.8993V36.2416L45.6376 37.5839H46.9799L48.3222 38.9262H52.349V34.8993L49.6644 32.2148V30.8725L48.3222 29.5302V26.8456L49.6644 25.5034V22.8188L51.0067 21.4765V20.1342L52.349 18.7919V14.7651L51.0067 13.4228V12.0805H49.6644Z" fill="#70BBBB"/>
<path d="M142.282 9.39597V14.7651L139.597 17.4497H138.255L136.913 18.7919H135.57L134.228 20.1342V25.5034L135.57 26.8456H136.913L138.255 25.5034H140.94L143.624 22.8188V21.4765L144.966 20.1342V18.7919L146.309 17.4497V10.7383H144.966L143.624 9.39597H142.282Z" fill="#7A7ACC"/>
<path d="M64.4295 5.36913L63.0872 6.71141H60.4027L59.0604 8.05369H60.4027L61.745 9.39597H63.0872L64.4295 10.7383H65.7718L68.4564 13.4228H69.7987L72.4832 16.1074V17.4497L75.1678 20.1342V21.4765L76.5101 22.8188V24.1611L77.8524 25.5034V29.5302L79.1946 30.8725V33.557L80.5369 34.8993V37.5839L81.8792 38.9262V40.2685L83.2215 41.6107V42.953H85.906V40.2685L87.2483 38.9262L85.906 37.5839V34.8993L84.5638 33.557V32.2148L83.2215 30.8725V29.5302L81.8792 28.1879V25.5034L80.5369 24.1611V21.4765L79.1946 20.1342V18.7919L77.8524 17.4497V16.1074L71.1409 9.39597V8.05369L69.7987 6.71141H68.4564L67.1141 5.36913H64.4295Z" fill="#70BBBB"/>
<path d="M126.174 2.68456V4.02685L127.517 5.36913V6.71141L128.859 8.05369V13.4228L130.201 14.7651H131.544L132.886 13.4228V12.0805L134.228 10.7383V9.39597L132.886 8.05369V5.36913L131.544 4.02685H128.859L127.517 2.68456H126.174Z" fill="#7A7ACC"/>
<path d="M76.5101 1.34228V2.68456L79.1946 5.36913V6.71141H80.5369L81.8792 8.05369V9.39597L84.5638 12.0805V13.4228L88.5906 17.4497V18.7919L89.9329 20.1342V21.4765L91.2752 22.8188V26.8456L92.6175 28.1879V29.5302L93.9597 30.8725V32.2148H96.6443L97.9866 30.8725V26.8456L96.6443 25.5034V24.1611L95.302 22.8188V20.1342L93.9597 18.7919V17.4497L91.2752 14.7651V13.4228L87.2483 9.39597V8.05369L83.2215 4.02685V2.68456L81.8792 1.34228H76.5101Z" fill="#70BBBB"/>
<path d="M108.725 0V1.34228L110.067 2.68456V4.02685L111.409 5.36913V6.71141L112.752 8.05369V9.39597L114.094 10.7383V12.0805L116.779 14.7651V16.1074L119.463 18.7919V21.4765L120.805 22.8188V41.6107L119.463 42.953V52.349L120.805 53.6913V55.0336H123.49L124.832 56.3758L126.174 55.0336H127.517L128.859 53.6913V51.0067L127.517 49.6644V48.3222L124.832 45.6376V36.2416L126.174 34.8993V22.8188L124.832 21.4765V18.7919L123.49 17.4497V16.1074L120.805 13.4228V12.0805L119.463 10.7383V9.39597L118.121 8.05369V6.71141L115.436 4.02685V2.68456L114.094 1.34228V0H108.725Z" fill="#7A7ACC"/>
<path d="M92.6175 0V1.34228L95.302 4.02685V6.71141L96.6443 8.05369V9.39597L97.9866 10.7383V12.0805H102.013L103.356 10.7383V6.71141L102.013 5.36913V4.02685L97.9866 0H92.6175Z" fill="#70BBBB"/>
</svg>
